<svg width="565" height="700" viewBox="0 0 355 440" fill="none" xmlns="http://www.w3.org/2000/svg">
<path fill-rule="evenodd" clip-rule="evenodd" d="M318.03 202.321C318.519 197.723 320.508 190.401 322.96 181.376C329.48 157.378 339.271 121.337 332.831 92.4423C332.506 89.5158 331.296 84.4767 328.328 79.0213C330.95 45.5815 279.397 -9.44109 227.151 7.01131C197.498 16.3491 176.589 42.3209 171.433 53.0864C168.129 59.9856 162.743 65.3711 158.131 69.983L158.131 69.9831C155.546 72.5676 153.204 74.9092 151.608 77.1381C148.534 81.4292 144.866 83.0483 144.866 83.0483C126.576 89.128 117.902 93.1509 105.638 101.407C79.8355 118.778 70.6046 149.241 66 164.436C65.5239 166.007 65.0973 167.415 64.707 168.628C44.6983 178.296 28.4939 230.019 37.0586 277.364C44.2351 317.034 53.7201 338.56 70.4507 354.865C72.0804 375.738 86.2654 387.402 105.406 385.139C117.103 421.798 142.075 424.246 173.51 417.24C193.85 412.707 209.66 400.848 219.668 382.511C245.04 372.048 264.028 357.8 276.322 340.635C280.442 337.116 285.067 333.796 289.781 330.413C298.137 324.415 306.775 318.215 313.392 310.336C314.412 309.259 315.562 308.069 316.809 306.778L316.81 306.777C329.2 293.948 351.182 271.189 350.66 251.544C350.682 229.031 333.72 212.177 329.4 207.884C329.092 207.578 328.848 207.336 328.679 207.16C327.678 206.117 323.649 202.672 318.03 202.321ZM324.125 351.225C337.585 356.745 338.904 374.823 327.071 391.604C315.239 408.385 294.735 417.514 281.275 411.995C267.816 406.475 266.497 388.396 278.329 371.615C290.162 354.834 310.665 345.705 324.125 351.225ZM108.663 78.8583C122.284 86.7461 141.179 79.58 150.866 62.8524C160.553 46.1247 157.363 26.17 143.742 18.2821C130.121 10.3943 111.226 17.5604 101.54 34.2881C91.8527 51.0157 95.0421 70.9705 108.663 78.8583Z" fill="#6DDCF4"/>
<ellipse cx="53.6473" cy="148.07" rx="3" ry="4.5" fill="#6DDCF4"/>
<ellipse cx="29.6473" cy="138.07" rx="13" ry="14.5" transform="rotate(31.3642 29.6473 138.07)" fill="#6DDCF4"/>
<path d="M164 205V243L164.5 249.5C164.5 249.5 166 260.5 166 265.5C166 270.5 165 271 162.5 273M162.5 273C161.343 273.926 158.5 275.536 157 276M162.5 273C160.833 274.182 157 276.418 157 276M163.5 329C163.5 329 166.5 324 166.5 317C166.5 310 166 308 164 305.5C161.603 302.504 156.5 303.5 154.5 302.5C152.5 301.5 154 296 154 296C154 296 151.5 294 148.5 293C145.5 292 141 292.5 139 289C137 285.5 141.5 281.5 145 279C148.5 276.5 153 278.5 153 278.5C153 278.5 154.876 277.111 157 276" stroke="black" stroke-width="2" stroke-linecap="round"/>
<path d="M129 207.405C130.067 206.928 132.486 206.124 133.818 204.842C135.725 204.084 135.112 205.127 134.617 206.124C133.97 207.426 133.818 208.421 133.009 209.38C132.761 210.126 131.667 214.644 131.99 213.922C132.219 213.409 132.025 212.923 132.191 212.407C133.785 209.859 136.302 207.942 137.538 206.124C139.683 202.97 141.094 204.261 142.659 201.972C143.065 201.378 144.126 200.581 144.501 199.976C144.729 199.609 145.093 199.324 145.424 199.028C146.076 198.444 146.791 197.581 147.601 197.155C148.706 196.574 148.989 195.845 150.164 195.319C150.864 195.007 153.381 195 155.525 195C155.525 195 155.923 195.162 156.597 195.479C157.189 195.758 157.67 195.959 158.742 196.438C159.243 196.82 160.348 197.573 160.886 197.87C161.692 198.313 162.439 198.778 163.187 199.299C163.996 199.861 164.218 201.058 164.218 201.972C164.218 203.365 166.822 203.149 167.856 203.149L169.464 203.628L170 204.107" stroke="black" stroke-width="2" stroke-linecap="round" stroke-linejoin="round"/>
<path d="M141 228C142 225.5 142.5 220.299 142.5 217.5C141.203 218.799 138 222.5 138 222.5C135.5 225 133.547 227.17 132.5 229.5C131.453 231.83 131.268 234.089 131.976 235.606C132.284 236.266 132.403 236.834 133 237.5C134.07 237.628 134.5 237.5 135.5 237C136.623 236.438 138.5 233.5 138.5 233.5C138.5 233.5 140 230.5 141 228Z" stroke="black" stroke-width="2" stroke-linecap="round" stroke-linejoin="round"/>
<path d="M94.7549 149.545C102.888 150.873 109.281 154.916 115.314 160.315C119.803 164.331 112.381 166.674 109.93 169.126C107.307 171.748 112.178 172.681 114.091 173.531C116.35 174.536 117.086 174.473 118.143 176.468C119.208 178.48 120.178 179.874 120.672 182.098C121.116 184.097 120.5 189.448 120.5 191.5C121 200 119.5 202 119.5 205C121.678 203 121.745 200.392 122 199.5C122 197.5 122.167 195.875 123 194C123 191 122.864 191 123 189.44C123 187.415 123 184.5 124 190.5C125.119 195.56 126 197.181 126 199C126 200.819 126 202 125 204.5C123.998 206.304 122.864 206.272 122 208" stroke="black" stroke-width="2" stroke-linecap="round" stroke-linejoin="round"/>
<path d="M117.5 333.5C120.245 333.5 120.493 333.057 123 332.5C124.011 332.275 125.067 332.207 126 332C128.136 331.525 133.832 329.982 136 329.5C137.649 329.133 140.212 327.577 141 326C141.788 324.423 142.192 322.5 143.5 320.5C145.369 317.642 148 315.5 148 315.5C149.82 314.084 151.495 312.911 153.5 312C158.061 309.927 160.914 309.742 165.862 309.742" stroke="black" stroke-width="2" stroke-linecap="round" stroke-linejoin="round"/>
<path d="M119.5 333.5C122.814 333.581 127.68 335.021 131 334C135.49 332.619 140.444 332.012 145 331C151.711 329.509 156.501 329 163.5 329" stroke="black" stroke-width="2" stroke-linecap="round" stroke-linejoin="round"/>
<path d="M127.001 334.642C128.353 336.952 130.597 339.097 132.5 341C134.836 343.336 138.503 345.41 141.5 346.5C148.37 348.998 148.509 349 155.5 349" stroke="black" stroke-width="2" stroke-linecap="round" stroke-linejoin="round"/>
<path d="M165.516 309.701C165.516 312.085 164 317.5 163.5 319.5C163 321 162.5 321.5 160.5 323C158.32 324.185 157 326 155.5 326C153.5 326 152.5 327 155 329" stroke="black" stroke-width="2" stroke-linecap="round" stroke-linejoin="round"/>
<path d="M158.547 329.5C158 331.5 158.403 332.227 159.69 331.941C160.713 331.714 162.279 330.202 163 331.5C163.903 333.125 163.426 339.082 163 341C162.446 343.493 160.5 345.368 158.547 346.5C156 347.975 156.473 347.055 155.5 349" stroke="black" stroke-width="2" stroke-linecap="round" stroke-linejoin="round"/>
<path d="M127.841 334.5C132.5 336.5 136.132 338.632 139.5 342C140.5 342.5 143.207 345.207 144.5 346.5C146.301 348.301 154.072 347.5 156.5 347.5" stroke="black" stroke-width="2" stroke-linecap="round" stroke-linejoin="round"/>
<path d="M155.5 349C156 350.5 157.738 351.78 159.5 352C160.258 352.095 160.934 354.267 160.934 356C160.934 359 160.049 361.888 161.5 363.5C165.027 367.418 163.066 375.5 161 379.5C159.798 381.828 157.5 385 157.5 385C155.189 387.822 149 388 149 388C140.74 388 134.5 388.5 130 388" stroke="black" stroke-width="2" stroke-linecap="round" stroke-linejoin="round"/>
<path d="M13 253.5C14.4766 257.376 15.074 258.326 16.5 263C17.5678 266.5 22.3811 283.004 24 288C26.9825 297.693 31.2859 307.28 35.8171 316.342C37.2247 319.158 41.0995 325.057 43 327.5C43 327.5 49 335 57 343C65 351 75.0971 360.478 84.5 368C92 374 100.5 379 100.5 379" stroke="black" stroke-width="2" stroke-linecap="round" stroke-linejoin="round"/>
<path d="M49.5 268C49.5 269.998 48.0962 271.5 46.5 271.5C44.9038 271.5 43.5 269.998 43.5 268C43.5 266.002 44.9038 264.5 46.5 264.5C48.0962 264.5 49.5 266.002 49.5 268Z" fill="#060606" stroke="black"/>
<path d="M48.7184 265.788C49.7723 266.236 50.3372 267.087 50.6948 268.16" stroke="black" stroke-linecap="round" stroke-linejoin="round"/>
<path d="M118 207C118 207 114 207.5 108 210C102 212.5 81.5 216 81.5 216" stroke="black" stroke-width="2" stroke-linecap="round"/>
<path d="M125.5 205.5L117.5 211H115L111.75 212.5M108.5 214L111.75 212.5M111.75 212.5L94.5 218L106 212.5L87 216.5" stroke="black" stroke-width="2" stroke-linecap="round" stroke-linejoin="round"/>
<path d="M92.5 213.5L74.5 212L71.5 211L65.5 206.5" stroke="black" stroke-width="3" stroke-linecap="round" stroke-linejoin="round"/>
<path d="M70 206.5L73.5 208L79.9626 213.529" stroke="black" stroke-width="3" stroke-linecap="round" stroke-linejoin="round"/>
<path d="M119.324 208.427C114.542 212.659 111.256 213.869 105.041 215.241C102.343 215.837 98.231 216.293 95.4693 216.124C88.9054 215.724 80.5391 214.757 79.0892 213.657" stroke="black" stroke-width="3" stroke-linecap="round" stroke-linejoin="round"/>
<path d="M102.402 213.212C105.074 213.212 108.689 213.766 111.088 212.255C112.398 211.43 114.035 210.185 115.485 209.702" stroke="black" stroke-linecap="round" stroke-linejoin="round"/>
<path d="M118.995 206.83C114.426 208.613 110.268 211.267 105.575 212.733C103.883 213.262 101.917 213.747 100.169 213.85C98.6215 213.941 97.0984 215.126 95.3824 215.126" stroke="black" stroke-linecap="round" stroke-linejoin="round"/>
<path d="M113.545 208.536C112.341 208.953 111.148 209.558 110.017 210.143C109.215 210.558 108.328 210.747 107.535 211.189C106.945 211.518 106.426 211.95 105.795 212.197C105.216 212.424 104.679 212.631 104.074 212.777C103.882 212.823 102.977 213.057 103.047 213.015C104.49 212.133 106.019 211.359 107.601 210.761C108.266 210.51 108.98 210.343 109.608 210.01C110.25 209.67 108.219 210.438 107.511 210.6C105.329 211.1 103.183 211.548 100.974 211.793C100.722 211.821 100.432 212.03 99.9895 212.164C99.7883 212.225 99.2079 212.302 99.3999 212.387C99.753 212.544 100.245 212.537 100.622 212.625C101.364 212.798 102.428 213.01 103.17 212.73C103.36 212.658 104.01 212.436 103.484 212.478C103.253 212.496 100.623 212.527 100.66 212.235C100.669 212.163 102.346 212.216 102.467 212.216C102.707 212.216 102.948 212.216 103.189 212.216C103.298 212.216 102.789 212.307 102.742 212.321C101.359 212.718 100.046 213.31 98.6344 213.633C97.9033 213.8 97.0962 213.842 96.3522 213.842C95.5937 213.842 94.8444 213.928 94.0843 213.928C93.1032 213.928 94.5461 213.885 94.8213 213.842C95.8752 213.68 96.8996 213.388 97.9498 213.224C98.3494 213.162 98.754 213.024 99.1194 212.858C99.2986 212.777 98.088 212.946 97.9117 212.987C96.5726 213.294 95.2758 213.643 93.9512 214.009C92.9015 214.298 91.8423 214.487 90.7609 214.527C90.5434 214.535 89.5337 214.869 89.9336 214.869C90.8266 214.869 91.7226 214.955 92.6199 214.955C93.1299 214.955 93.617 214.784 94.1176 214.784" stroke="black" stroke-width="3" stroke-linecap="round" stroke-linejoin="round"/>
<path d="M113.048 210.577C111.785 210.825 110.23 211.738 108.951 211.738C108.003 211.738 110.762 211.176 111.67 210.904C111.789 210.868 113.893 209.936 113.882 209.925C113.468 209.51 111.642 210.465 111.271 210.65C109.566 211.503 107.689 212.677 106.449 214.094C105.629 215.031 108.578 212.763 109.458 211.883" stroke="black" stroke-linecap="round" stroke-linejoin="round"/>
<path d="M128 173C124.5 170.5 119 166.972 112 164.5C105 162.028 89 159.833 83.5 159.5C69.9878 158.681 57.7434 160.537 54.5 161C45.5905 162.273 32.5 164.5 32.5 164.5C28.0825 165.593 25.1237 168.016 22.5258 170.968C19.9278 173.921 18.6289 180.188 18.6289 186.153C18.6289 186.153 18.6904 187.012 18.801 188.215C19.0536 190.521 19.4948 193.745 19.4948 193.745C19.1932 192.129 18.9516 189.853 18.801 188.215C18.6998 187.291 18.6289 186.515 18.6289 186.153C18.6289 186.153 17.9263 184.035 16.8969 183.2C15.8588 179.155 16.6612 179.292 16.0309 175.608C15.4078 171.966 14.732 168.016 13 165.907C14.299 162.954 14.732 162.11 16.0309 161.689C18.4339 160.908 19.0619 161.267 22.9588 160.423C28.9777 159.12 31.1856 158.736 38.1134 157.892C38.1134 157.892 60.6892 155.5 72 155.5C80.118 155.5 96 155.5 108.5 159C114.921 160.798 121.66 163.563 128 168C134.34 172.437 133.784 175.868 134 176.5C134.216 177.132 132.938 178.139 132.938 178.139L128 173Z" fill="#1B3475"/>
<path d="M18.6289 186.153C18.6289 180.188 19.9278 173.921 22.5258 170.968C25.1237 168.016 28.0825 165.593 32.5 164.5C32.5 164.5 45.5905 162.273 54.5 161C57.7434 160.537 69.9878 158.681 83.5 159.5C89 159.833 105 162.028 112 164.5C119 166.972 124.5 170.5 128 173L132.938 178.139C132.938 178.139 134.216 177.132 134 176.5C133.784 175.868 134.34 172.437 128 168C121.66 163.563 114.921 160.798 108.5 159C96 155.5 80.118 155.5 72 155.5C60.6892 155.5 38.1134 157.892 38.1134 157.892C31.1856 158.736 28.9777 159.12 22.9588 160.423C19.0619 161.267 18.4339 160.908 16.0309 161.689C14.732 162.11 14.299 162.954 13 165.907C14.732 168.016 15.4078 171.966 16.0309 175.608C16.6612 179.292 15.8588 179.155 16.8969 183.2C17.9263 184.035 18.6289 186.153 18.6289 186.153ZM18.6289 186.153C18.6289 187.418 19.4948 193.745 19.4948 193.745M18.6289 186.153C18.6289 186.153 18.9716 190.941 19.4948 193.745M19.4948 193.745C19.4948 193.745 20.8227 200.494 22.0928 205.133C23.3629 209.773 25.1237 214.835 27.7216 219.896C30.3196 224.958 38.5464 236.768 43.3093 241.408C48.0722 246.047 56.299 249 59.7629 249C63.7823 249 73.5966 249 80.5463 249C87.4742 249 105.66 247.313 105.66 247.313C105.66 247.313 119.01 244.838 126.443 241.408C132.072 238.81 139 227.067 139 218.631" stroke="black" stroke-width="2" stroke-linecap="round" stroke-linejoin="round"/>
<ellipse cx="18.1455" cy="166.215" rx="1.5" ry="3" transform="rotate(-43.1214 18.1455 166.215)" fill="white"/>
<ellipse cx="245.432" cy="87.7253" rx="28.5" ry="36.7403" transform="rotate(27.1032 245.432 87.7253)" fill="white"/>
<path d="M208.5 50.5L259.5 130.5" stroke="black"/>
<path d="M207 122L268 30.5" stroke="black"/>
<path d="M229.5 34.5L232.5 138" stroke="black"/>
<path d="M192 93L313 70" stroke="black"/>
<circle cx="207.5" cy="48.5" r="3.5" fill="black"/>
<circle cx="261.5" cy="132.5" r="3.5" fill="black"/>
<circle cx="313.5" cy="69.5" r="3.5" fill="black"/>
<circle cx="268" cy="30" r="2" fill="black"/>
<circle cx="206.5" cy="122.5" r="3.5" fill="black"/>
<circle cx="233" cy="139" r="2" fill="black"/>
<circle cx="190" cy="93" r="2" fill="black"/>
<circle cx="230" cy="33" r="2" fill="black"/>
<ellipse cx="16" cy="393" rx="7" ry="10" fill="white"/>
<path d="M3 378L30 404.5" stroke="black"/>
<path d="M25 370.5L10.5 404.5" stroke="black"/>
<path d="M4 392L35 389.5" stroke="black"/>
<circle cx="31" cy="406" r="2" fill="black"/>
<circle cx="36" cy="390" r="2" fill="black"/>
<circle cx="25" cy="371" r="2" fill="black"/>
<circle cx="2" cy="377" r="2" fill="black"/>
<circle cx="3" cy="392" r="2" fill="black"/>
<circle cx="10" cy="405" r="2" fill="black"/>
<path d="M49 55L116 88.5" stroke="black"/>
<path d="M50 52L117 85.5" stroke="black"/>
<path d="M127.5 80L130 32" stroke="black"/>
<path d="M130.5 80L133 32" stroke="black"/>
<path d="M50 43.5L123.5 25.5" stroke="black"/>
<path d="M51 46.5L124.5 28.5" stroke="black"/>
<circle cx="37" cy="47" r="11.5" stroke="black"/>
<circle cx="131.5" cy="24.5" r="6" stroke="black"/>
<circle cx="127.5" cy="90.5" r="9" stroke="black"/>
<path d="M298.127 323.478C297.132 334.828 289.851 346.318 277.307 348.004C268.06 349.247 263.659 347.476 261.502 344.518C260.407 343.017 259.844 341.155 259.559 339.08C259.274 337.003 259.273 334.757 259.273 332.5C259.273 323.727 266.851 310.41 281.658 305.474C284.441 304.547 286.832 304.607 288.858 305.337C290.889 306.07 292.596 307.492 293.974 309.359C296.734 313.1 298.123 318.559 298.127 323.478Z" stroke="black"/>
<path d="M228.664 314.145C230.173 310.827 232.051 308.311 233.966 306.835C235.881 305.359 237.761 304.966 239.375 305.7C241.054 306.464 241.871 307.732 242.077 309.292C242.287 310.886 241.857 312.812 240.946 314.816C240.076 316.729 238.181 318.43 236.033 319.447C233.903 320.455 231.646 320.735 229.996 320.018C229.028 319.166 228.574 317.972 228.427 316.824C228.275 315.642 228.46 314.595 228.664 314.145Z" stroke="black"/>
</svg>
