<svg width="375" height="559" viewBox="0 0 375 559" fill="none" xmlns="http://www.w3.org/2000/svg">
<path d="M335.5 302C341 281.5 374.5 221.081 374.5 169C374.825 165.258 374.739 158.633 373 151C383 110 344 27 288.5 33C257 36.4054 230.5 63 223 75C215.5 87 203.785 92.9913 198 99.5C194 104 190 105 190 105C170.5 107.5 161 110.108 147 117C114.5 133 98.5 174.5 91.5 189.5C69.5 196 41.9725 256.037 40 317.5C38.3472 369 43 398.5 56 423.5C53 450 64.5 468.5 84 471C87.5 520 111.747 530 144.5 530C165.692 530 184.009 519.598 198 499.5C225.5 493.5 247.5 481 263.5 463C277 454 294 448 307 435.5C320.677 423.909 352.786 399.641 357 372.5C362.359 342.408 346.931 315 345 311C344.237 309.42 341 304 335.5 302Z" fill="#6DDCF4"/>
<ellipse cx="283.186" cy="506.989" rx="42.4816" ry="29.2179" transform="rotate(-48.7882 283.186 506.989)" fill="#6DDCF4"/>
<ellipse cx="354.759" cy="290.702" rx="8.5" ry="12" transform="rotate(34.0212 354.759 290.702)" fill="#6DDCF4"/>
<ellipse cx="43" cy="208.5" rx="3" ry="4.5" fill="#6DDCF4"/>
<ellipse cx="19" cy="198.5" rx="13" ry="14.5" transform="rotate(31.3642 19 198.5)" fill="#6DDCF4"/>
<ellipse cx="181.5" cy="45" rx="28.5" ry="35" transform="rotate(30.0747 181.5 45)" fill="#6DDCF4"/>
<path d="M164 309V347L164.5 353.5C164.5 353.5 166 364.5 166 369.5C166 374.5 165 375 162.5 377M162.5 377C161.343 377.926 158.5 379.536 157 380M162.5 377C160.833 378.182 157 380.418 157 380M163.5 433C163.5 433 166.5 428 166.5 421C166.5 414 166 412 164 409.5C161.603 406.504 156.5 407.5 154.5 406.5C152.5 405.5 154 400 154 400C154 400 151.5 398 148.5 397C145.5 396 141 396.5 139 393C137 389.5 141.5 385.5 145 383C148.5 380.5 153 382.5 153 382.5C153 382.5 154.876 381.111 157 380" stroke="black" stroke-width="2" stroke-linecap="round"/>
<path d="M129 311.405C130.067 310.928 132.486 310.124 133.818 308.842C135.725 308.084 135.112 309.127 134.617 310.124C133.97 311.426 133.818 312.421 133.009 313.38C132.761 314.126 131.667 318.644 131.99 317.922C132.219 317.409 132.025 316.923 132.191 316.407C133.785 313.859 136.302 311.942 137.538 310.124C139.683 306.97 141.094 308.261 142.659 305.972C143.065 305.378 144.126 304.581 144.501 303.976C144.729 303.609 145.093 303.324 145.424 303.028C146.076 302.444 146.791 301.581 147.601 301.155C148.706 300.574 148.989 299.845 150.164 299.319C150.864 299.007 153.381 299 155.525 299C155.525 299 155.923 299.162 156.597 299.479C157.189 299.758 157.67 299.959 158.742 300.438C159.243 300.82 160.348 301.573 160.886 301.87C161.692 302.313 162.439 302.778 163.187 303.299C163.996 303.861 164.218 305.058 164.218 305.972C164.218 307.365 166.822 307.149 167.856 307.149L169.464 307.628L170 308.107" stroke="black" stroke-width="2" stroke-linecap="round" stroke-linejoin="round"/>
<path d="M141 332C142 329.5 142.5 324.299 142.5 321.5C141.203 322.799 138 326.5 138 326.5C135.5 329 133.547 331.17 132.5 333.5C131.453 335.83 131.268 338.089 131.976 339.606C132.284 340.266 132.403 340.834 133 341.5C134.07 341.628 134.5 341.5 135.5 341C136.623 340.438 138.5 337.5 138.5 337.5C138.5 337.5 140 334.5 141 332Z" stroke="black" stroke-width="2" stroke-linecap="round" stroke-linejoin="round"/>
<path d="M94.7549 253.545C102.888 254.873 109.281 258.916 115.314 264.315C119.803 268.331 112.381 270.674 109.93 273.126C107.307 275.748 112.178 276.681 114.091 277.531C116.35 278.536 117.086 278.473 118.143 280.468C119.208 282.48 120.178 283.874 120.672 286.098C121.116 288.097 120.5 293.448 120.5 295.5C121 304 119.5 306 119.5 309C121.678 307 121.745 304.392 122 303.5C122 301.5 122.167 299.875 123 298C123 295 122.864 295 123 293.44C123 291.415 123 288.5 124 294.5C125.119 299.56 126 301.181 126 303C126 304.819 126 306 125 308.5C123.998 310.304 122.864 310.272 122 312" stroke="black" stroke-width="2" stroke-linecap="round" stroke-linejoin="round"/>
<path d="M117.5 437.5C120.245 437.5 120.493 437.057 123 436.5C124.011 436.275 125.067 436.207 126 436C128.136 435.525 133.832 433.982 136 433.5C137.649 433.133 140.212 431.577 141 430C141.788 428.423 142.192 426.5 143.5 424.5C145.369 421.642 148 419.5 148 419.5C149.82 418.084 151.495 416.911 153.5 416C158.061 413.927 160.914 413.742 165.862 413.742" stroke="black" stroke-width="2" stroke-linecap="round" stroke-linejoin="round"/>
<path d="M119.5 437.5C122.814 437.581 127.68 439.021 131 438C135.49 436.619 140.444 436.012 145 435C151.711 433.509 156.501 433 163.5 433" stroke="black" stroke-width="2" stroke-linecap="round" stroke-linejoin="round"/>
<path d="M127.001 438.642C128.353 440.952 130.597 443.097 132.5 445C134.836 447.336 138.503 449.41 141.5 450.5C148.37 452.998 148.509 453 155.5 453" stroke="black" stroke-width="2" stroke-linecap="round" stroke-linejoin="round"/>
<path d="M165.516 413.701C165.516 416.085 164 421.5 163.5 423.5C163 425 162.5 425.5 160.5 427C158.32 428.185 157 430 155.5 430C153.5 430 152.5 431 155 433" stroke="black" stroke-width="2" stroke-linecap="round" stroke-linejoin="round"/>
<path d="M158.547 433.5C158 435.5 158.403 436.227 159.69 435.941C160.713 435.714 162.279 434.202 163 435.5C163.903 437.125 163.426 443.082 163 445C162.446 447.493 160.5 449.368 158.547 450.5C156 451.975 156.473 451.055 155.5 453" stroke="black" stroke-width="2" stroke-linecap="round" stroke-linejoin="round"/>
<path d="M127.841 438.5C132.5 440.5 136.132 442.632 139.5 446C140.5 446.5 143.207 449.207 144.5 450.5C146.301 452.301 154.072 451.5 156.5 451.5" stroke="black" stroke-width="2" stroke-linecap="round" stroke-linejoin="round"/>
<path d="M155.5 453C156 454.5 157.738 455.78 159.5 456C160.258 456.095 160.934 458.267 160.934 460C160.934 463 160.049 465.888 161.5 467.5C165.027 471.418 163.066 479.5 161 483.5C159.798 485.828 157.5 489 157.5 489C155.189 491.822 149 492 149 492C140.74 492 134.5 492.5 130 492" stroke="black" stroke-width="2" stroke-linecap="round" stroke-linejoin="round"/>
<path d="M13 357.5C14.4766 361.376 15.074 362.326 16.5 367C17.5678 370.5 22.3811 387.004 24 392C26.9825 401.693 31.2859 411.28 35.8171 420.342C37.2247 423.158 41.0995 429.057 43 431.5C43 431.5 49 439 57 447C65 455 75.0971 464.478 84.5 472C92 478 100.5 483 100.5 483" stroke="black" stroke-width="2" stroke-linecap="round" stroke-linejoin="round"/>
<path d="M49.5 372C49.5 373.998 48.0962 375.5 46.5 375.5C44.9038 375.5 43.5 373.998 43.5 372C43.5 370.002 44.9038 368.5 46.5 368.5C48.0962 368.5 49.5 370.002 49.5 372Z" fill="#060606" stroke="black"/>
<path d="M48.7184 369.788C49.7723 370.236 50.3372 371.087 50.6948 372.16" stroke="black" stroke-linecap="round" stroke-linejoin="round"/>
<path d="M118 311C118 311 114 311.5 108 314C102 316.5 81.5 320 81.5 320" stroke="black" stroke-width="2" stroke-linecap="round"/>
<path d="M125.5 309.5L117.5 315H115L111.75 316.5M108.5 318L111.75 316.5M111.75 316.5L94.5 322L106 316.5L87 320.5" stroke="black" stroke-width="2" stroke-linecap="round" stroke-linejoin="round"/>
<path d="M92.5 317.5L74.5 316L71.5 315L65.5 310.5" stroke="black" stroke-width="3" stroke-linecap="round" stroke-linejoin="round"/>
<path d="M70 310.5L73.5 312L79.9626 317.529" stroke="black" stroke-width="3" stroke-linecap="round" stroke-linejoin="round"/>
<path d="M119.324 312.427C114.542 316.659 111.256 317.869 105.041 319.241C102.343 319.837 98.231 320.293 95.4693 320.124C88.9054 319.724 80.5391 318.757 79.0892 317.657" stroke="black" stroke-width="3" stroke-linecap="round" stroke-linejoin="round"/>
<path d="M102.402 317.212C105.074 317.212 108.689 317.766 111.088 316.255C112.398 315.43 114.035 314.185 115.485 313.702" stroke="black" stroke-linecap="round" stroke-linejoin="round"/>
<path d="M118.995 310.83C114.426 312.613 110.268 315.267 105.575 316.733C103.883 317.262 101.917 317.747 100.169 317.85C98.6215 317.941 97.0984 319.126 95.3824 319.126" stroke="black" stroke-linecap="round" stroke-linejoin="round"/>
<path d="M113.545 312.536C112.341 312.953 111.148 313.558 110.017 314.143C109.215 314.558 108.328 314.747 107.535 315.189C106.945 315.518 106.426 315.95 105.795 316.197C105.216 316.424 104.679 316.631 104.074 316.777C103.882 316.823 102.977 317.057 103.047 317.015C104.49 316.133 106.019 315.359 107.601 314.761C108.266 314.51 108.98 314.343 109.608 314.01C110.25 313.67 108.219 314.438 107.511 314.6C105.329 315.1 103.183 315.548 100.974 315.793C100.722 315.821 100.432 316.03 99.9895 316.164C99.7883 316.225 99.2079 316.302 99.3999 316.387C99.753 316.544 100.245 316.537 100.622 316.625C101.364 316.798 102.428 317.01 103.17 316.73C103.36 316.658 104.01 316.436 103.484 316.478C103.253 316.496 100.623 316.527 100.66 316.235C100.669 316.163 102.346 316.216 102.467 316.216C102.707 316.216 102.948 316.216 103.189 316.216C103.298 316.216 102.789 316.307 102.742 316.321C101.359 316.718 100.046 317.31 98.6344 317.633C97.9033 317.8 97.0962 317.842 96.3522 317.842C95.5937 317.842 94.8444 317.928 94.0843 317.928C93.1032 317.928 94.5461 317.885 94.8213 317.842C95.8752 317.68 96.8996 317.388 97.9498 317.224C98.3494 317.162 98.754 317.024 99.1194 316.858C99.2986 316.777 98.088 316.946 97.9117 316.987C96.5726 317.294 95.2758 317.643 93.9512 318.009C92.9015 318.298 91.8423 318.487 90.7609 318.527C90.5434 318.535 89.5337 318.869 89.9336 318.869C90.8266 318.869 91.7226 318.955 92.6199 318.955C93.1299 318.955 93.617 318.784 94.1176 318.784" stroke="black" stroke-width="3" stroke-linecap="round" stroke-linejoin="round"/>
<path d="M113.048 314.577C111.785 314.825 110.23 315.738 108.951 315.738C108.003 315.738 110.762 315.176 111.67 314.904C111.789 314.868 113.893 313.936 113.882 313.925C113.468 313.51 111.642 314.465 111.271 314.65C109.566 315.503 107.689 316.677 106.449 318.094C105.629 319.031 108.578 316.763 109.458 315.883" stroke="black" stroke-linecap="round" stroke-linejoin="round"/>
<path d="M128 277C124.5 274.5 119 270.972 112 268.5C105 266.028 89 263.833 83.5 263.5C69.9878 262.681 57.7434 264.537 54.5 265C45.5905 266.273 32.5 268.5 32.5 268.5C28.0825 269.593 25.1237 272.016 22.5258 274.968C19.9278 277.921 18.6289 284.188 18.6289 290.153C18.6289 290.153 18.6904 291.012 18.801 292.216C19.0536 294.521 19.4948 297.745 19.4948 297.745C19.1932 296.129 18.9516 293.853 18.801 292.216C18.6998 291.291 18.6289 290.515 18.6289 290.153C18.6289 290.153 17.9263 288.035 16.8969 287.2C15.8588 283.155 16.6612 283.292 16.0309 279.608C15.4078 275.966 14.732 272.016 13 269.907C14.299 266.954 14.732 266.11 16.0309 265.689C18.4339 264.908 19.0619 265.267 22.9588 264.423C28.9777 263.12 31.1856 262.736 38.1134 261.892C38.1134 261.892 60.6892 259.5 72 259.5C80.118 259.5 96 259.5 108.5 263C114.921 264.798 121.66 267.563 128 272C134.34 276.437 133.784 279.868 134 280.5C134.216 281.132 132.938 282.139 132.938 282.139L128 277Z" fill="#1B3475"/>
<path d="M18.6289 290.153C18.6289 284.188 19.9278 277.921 22.5258 274.968C25.1237 272.016 28.0825 269.593 32.5 268.5C32.5 268.5 45.5905 266.273 54.5 265C57.7434 264.537 69.9878 262.681 83.5 263.5C89 263.833 105 266.028 112 268.5C119 270.972 124.5 274.5 128 277L132.938 282.139C132.938 282.139 134.216 281.132 134 280.5C133.784 279.868 134.34 276.437 128 272C121.66 267.563 114.921 264.798 108.5 263C96 259.5 80.118 259.5 72 259.5C60.6892 259.5 38.1134 261.892 38.1134 261.892C31.1856 262.736 28.9777 263.12 22.9588 264.423C19.0619 265.267 18.4339 264.908 16.0309 265.689C14.732 266.11 14.299 266.954 13 269.907C14.732 272.016 15.4078 275.966 16.0309 279.608C16.6612 283.292 15.8588 283.155 16.8969 287.2C17.9263 288.035 18.6289 290.153 18.6289 290.153ZM18.6289 290.153C18.6289 291.418 19.4948 297.745 19.4948 297.745M18.6289 290.153C18.6289 290.153 18.9716 294.941 19.4948 297.745M19.4948 297.745C19.4948 297.745 20.8227 304.494 22.0928 309.133C23.3629 313.773 25.1237 318.835 27.7216 323.896C30.3196 328.958 38.5464 340.768 43.3093 345.408C48.0722 350.047 56.299 353 59.7629 353C63.7823 353 73.5966 353 80.5463 353C87.4742 353 105.66 351.313 105.66 351.313C105.66 351.313 119.01 348.838 126.443 345.408C132.072 342.81 139 331.067 139 322.631" stroke="black" stroke-width="2" stroke-linecap="round" stroke-linejoin="round"/>
<ellipse cx="18.1455" cy="270.215" rx="1.5" ry="3" transform="rotate(-43.1214 18.1455 270.215)" fill="white"/>
<ellipse cx="245.432" cy="208.725" rx="28.5" ry="36.7403" transform="rotate(27.1032 245.432 208.725)" fill="white"/>
<path d="M208.5 171.5L259.5 251.5" stroke="black"/>
<path d="M207 243L268 151.5" stroke="black"/>
<path d="M229.5 155.5L232.5 259" stroke="black"/>
<path d="M192 214L313 191" stroke="black"/>
<circle cx="207.5" cy="169.5" r="3.5" fill="black"/>
<circle cx="261.5" cy="253.5" r="3.5" fill="black"/>
<circle cx="313.5" cy="190.5" r="3.5" fill="black"/>
<circle cx="268" cy="151" r="2" fill="black"/>
<circle cx="206.5" cy="243.5" r="3.5" fill="black"/>
<circle cx="233" cy="260" r="2" fill="black"/>
<circle cx="190" cy="214" r="2" fill="black"/>
<circle cx="230" cy="154" r="2" fill="black"/>
<ellipse cx="129.5" cy="77.5" rx="5.5" ry="7.5" fill="white"/>
<path d="M120.5 63L131.5 87.5" stroke="black"/>
<path d="M131.5 55L125.5 89.5" stroke="black"/>
<path d="M116 80.5L139.5 76" stroke="black"/>
<circle cx="132" cy="88" r="2" fill="black"/>
<circle cx="140" cy="76" r="2" fill="black"/>
<circle cx="132" cy="54" r="2" fill="black"/>
<circle cx="120" cy="62" r="2" fill="black"/>
<circle cx="125" cy="90" r="2" fill="black"/>
<circle cx="115" cy="81" r="2" fill="black"/>
<ellipse cx="16" cy="464" rx="7" ry="10" fill="white"/>
<path d="M3 449L30 475.5" stroke="black"/>
<path d="M25 441.5L10.5 475.5" stroke="black"/>
<path d="M4 463L35 460.5" stroke="black"/>
<circle cx="31" cy="477" r="2" fill="black"/>
<circle cx="36" cy="461" r="2" fill="black"/>
<circle cx="25" cy="442" r="2" fill="black"/>
<circle cx="2" cy="448" r="2" fill="black"/>
<circle cx="3" cy="463" r="2" fill="black"/>
<circle cx="10" cy="476" r="2" fill="black"/>
<path d="M49 152L116 185.5" stroke="black"/>
<path d="M50 149L117 182.5" stroke="black"/>
<path d="M127.5 177L130 129" stroke="black"/>
<path d="M130.5 177L133 129" stroke="black"/>
<path d="M50 140.5L123.5 122.5" stroke="black"/>
<path d="M51 143.5L124.5 125.5" stroke="black"/>
<circle cx="37" cy="144" r="11.5" stroke="black"/>
<circle cx="131.5" cy="121.5" r="6" stroke="black"/>
<circle cx="127.5" cy="187.5" r="9" stroke="black"/>
<path d="M298.127 394.478C297.132 405.828 289.851 417.318 277.307 419.004C268.06 420.247 263.659 418.476 261.502 415.518C260.407 414.017 259.844 412.155 259.559 410.08C259.274 408.003 259.273 405.757 259.273 403.5C259.273 394.727 266.851 381.41 281.658 376.474C284.441 375.547 286.832 375.607 288.858 376.337C290.889 377.07 292.596 378.492 293.974 380.359C296.734 384.1 298.123 389.559 298.127 394.478Z" stroke="black"/>
<path d="M228.664 385.145C230.173 381.827 232.051 379.311 233.966 377.835C235.881 376.359 237.761 375.966 239.375 376.7C241.054 377.464 241.871 378.732 242.077 380.292C242.287 381.886 241.857 383.812 240.946 385.816C240.076 387.729 238.181 389.43 236.033 390.447C233.903 391.455 231.646 391.735 229.996 391.018C229.028 390.166 228.574 388.972 228.427 387.824C228.275 386.642 228.46 385.595 228.664 385.145Z" stroke="black"/>
</svg>
