<svg width="495" height="575" viewBox="0 0 495 575" fill="none" xmlns="http://www.w3.org/2000/svg">
<g clip-path="url(#clip0)">
<path d="M373.03 255.321C374.821 238.494 396.692 185.203 387.831 145.442C387.506 142.516 386.296 137.477 383.328 132.021C385.95 98.5815 334.397 43.5589 282.151 60.0113C252.498 69.3492 231.589 95.3209 226.433 106.086C221.277 116.852 211.053 123.932 206.608 130.138C203.534 134.429 199.866 136.048 199.866 136.048C181.576 142.128 172.902 146.151 160.638 154.407C132.168 173.574 123.873 208.679 119.707 221.628C99.6983 231.296 83.4939 283.019 92.0586 330.364C99.2351 370.034 108.72 391.56 125.451 407.865C127.08 428.738 141.265 440.402 160.406 438.139C172.103 474.798 197.075 477.246 228.51 470.24C248.85 465.707 264.66 453.848 274.668 435.511C300.04 425.048 319.028 410.8 331.322 393.635C342.747 383.877 358.042 375.66 368.392 363.336C379.546 351.562 406.234 326.166 405.66 304.544C405.684 280.425 386.213 262.801 383.679 260.16C382.678 259.117 378.649 255.672 373.03 255.321Z" fill="#6DDCF4"/>
<ellipse rx="37.1787" ry="26.3406" transform="matrix(0.576265 -0.817263 0.92522 0.379432 357.7 455.61)" fill="#6DDCF4"/>
<ellipse cx="181.203" cy="101.57" rx="28.5" ry="35" transform="rotate(30.0747 181.203 101.57)" fill="#6DDCF4"/>
</g>
<ellipse cx="108.647" cy="201.07" rx="3" ry="4.5" fill="#6DDCF4"/>
<ellipse cx="84.6473" cy="191.07" rx="13" ry="14.5" transform="rotate(31.3642 84.6473 191.07)" fill="#6DDCF4"/>
<path d="M219 258V296L219.5 302.5C219.5 302.5 221 313.5 221 318.5C221 323.5 220 324 217.5 326M217.5 326C216.343 326.926 213.5 328.536 212 329M217.5 326C215.833 327.182 212 329.418 212 329M218.5 382C218.5 382 221.5 377 221.5 370C221.5 363 221 361 219 358.5C216.603 355.504 211.5 356.5 209.5 355.5C207.5 354.5 209 349 209 349C209 349 206.5 347 203.5 346C200.5 345 196 345.5 194 342C192 338.5 196.5 334.5 200 332C203.5 329.5 208 331.5 208 331.5C208 331.5 209.876 330.111 212 329" stroke="black" stroke-width="2" stroke-linecap="round"/>
<path d="M184 260.405C185.067 259.928 187.486 259.124 188.818 257.842C190.725 257.084 190.112 258.127 189.617 259.124C188.97 260.426 188.818 261.421 188.009 262.38C187.761 263.126 186.667 267.644 186.99 266.922C187.219 266.409 187.025 265.923 187.191 265.407C188.785 262.859 191.302 260.942 192.538 259.124C194.683 255.97 196.094 257.261 197.659 254.972C198.065 254.378 199.126 253.581 199.501 252.976C199.729 252.609 200.093 252.324 200.424 252.028C201.076 251.444 201.791 250.581 202.601 250.155C203.706 249.574 203.989 248.845 205.164 248.319C205.864 248.007 208.381 248 210.525 248C210.525 248 210.923 248.162 211.597 248.479C212.189 248.758 212.67 248.959 213.742 249.438C214.243 249.82 215.348 250.573 215.886 250.87C216.692 251.313 217.439 251.778 218.187 252.299C218.996 252.861 219.218 254.058 219.218 254.972C219.218 256.365 221.822 256.149 222.856 256.149L224.464 256.628L225 257.107" stroke="black" stroke-width="2" stroke-linecap="round" stroke-linejoin="round"/>
<path d="M196 281C197 278.5 197.5 273.299 197.5 270.5C196.203 271.799 193 275.5 193 275.5C190.5 278 188.547 280.17 187.5 282.5C186.453 284.83 186.268 287.089 186.976 288.606C187.284 289.266 187.403 289.834 188 290.5C189.07 290.628 189.5 290.5 190.5 290C191.623 289.438 193.5 286.5 193.5 286.5C193.5 286.5 195 283.5 196 281Z" stroke="black" stroke-width="2" stroke-linecap="round" stroke-linejoin="round"/>
<path d="M149.755 202.545C157.888 203.873 164.281 207.916 170.314 213.315C174.803 217.331 167.381 219.674 164.93 222.126C162.307 224.748 167.178 225.681 169.091 226.531C171.35 227.536 172.086 227.473 173.143 229.468C174.208 231.48 175.178 232.874 175.672 235.098C176.116 237.097 175.5 242.448 175.5 244.5C176 253 174.5 255 174.5 258C176.678 256 176.745 253.392 177 252.5C177 250.5 177.167 248.875 178 247C178 244 177.864 244 178 242.44C178 240.415 178 237.5 179 243.5C180.119 248.56 181 250.181 181 252C181 253.819 181 255 180 257.5C178.998 259.304 177.864 259.272 177 261" stroke="black" stroke-width="2" stroke-linecap="round" stroke-linejoin="round"/>
<path d="M172.5 386.5C175.245 386.5 175.493 386.057 178 385.5C179.011 385.275 180.067 385.207 181 385C183.136 384.525 188.832 382.982 191 382.5C192.649 382.133 195.212 380.577 196 379C196.788 377.423 197.192 375.5 198.5 373.5C200.369 370.642 203 368.5 203 368.5C204.82 367.084 206.495 365.911 208.5 365C213.061 362.927 215.914 362.742 220.862 362.742" stroke="black" stroke-width="2" stroke-linecap="round" stroke-linejoin="round"/>
<path d="M174.5 386.5C177.814 386.581 182.68 388.021 186 387C190.49 385.619 195.444 385.012 200 384C206.711 382.509 211.501 382 218.5 382" stroke="black" stroke-width="2" stroke-linecap="round" stroke-linejoin="round"/>
<path d="M182.001 387.642C183.353 389.952 185.597 392.097 187.5 394C189.836 396.336 193.503 398.41 196.5 399.5C203.37 401.998 203.509 402 210.5 402" stroke="black" stroke-width="2" stroke-linecap="round" stroke-linejoin="round"/>
<path d="M220.516 362.701C220.516 365.085 219 370.5 218.5 372.5C218 374 217.5 374.5 215.5 376C213.32 377.185 212 379 210.5 379C208.5 379 207.5 380 210 382" stroke="black" stroke-width="2" stroke-linecap="round" stroke-linejoin="round"/>
<path d="M213.547 382.5C213 384.5 213.403 385.227 214.69 384.941C215.713 384.714 217.279 383.202 218 384.5C218.903 386.125 218.426 392.082 218 394C217.446 396.493 215.5 398.368 213.547 399.5C211 400.975 211.473 400.055 210.5 402" stroke="black" stroke-width="2" stroke-linecap="round" stroke-linejoin="round"/>
<path d="M182.841 387.5C187.5 389.5 191.132 391.632 194.5 395C195.5 395.5 198.207 398.207 199.5 399.5C201.301 401.301 209.072 400.5 211.5 400.5" stroke="black" stroke-width="2" stroke-linecap="round" stroke-linejoin="round"/>
<path d="M210.5 402C211 403.5 212.738 404.78 214.5 405C215.258 405.095 215.934 407.267 215.934 409C215.934 412 215.049 414.888 216.5 416.5C220.027 420.418 218.066 428.5 216 432.5C214.798 434.828 212.5 438 212.5 438C210.189 440.822 204 441 204 441C195.74 441 189.5 441.5 185 441" stroke="black" stroke-width="2" stroke-linecap="round" stroke-linejoin="round"/>
<path d="M68 306.5C69.4766 310.376 70.074 311.326 71.5 316C72.5678 319.5 77.3811 336.004 79 341C81.9825 350.693 86.2859 360.28 90.8171 369.342C92.2247 372.158 96.0995 378.057 98 380.5C98 380.5 104 388 112 396C120 404 130.097 413.478 139.5 421C147 427 155.5 432 155.5 432" stroke="black" stroke-width="2" stroke-linecap="round" stroke-linejoin="round"/>
<path d="M104.5 321C104.5 322.998 103.096 324.5 101.5 324.5C99.9038 324.5 98.5 322.998 98.5 321C98.5 319.002 99.9038 317.5 101.5 317.5C103.096 317.5 104.5 319.002 104.5 321Z" fill="#060606" stroke="black"/>
<path d="M103.718 318.788C104.772 319.236 105.337 320.087 105.695 321.16" stroke="black" stroke-linecap="round" stroke-linejoin="round"/>
<path d="M173 260C173 260 169 260.5 163 263C157 265.5 136.5 269 136.5 269" stroke="black" stroke-width="2" stroke-linecap="round"/>
<path d="M180.5 258.5L172.5 264H170L166.75 265.5M163.5 267L166.75 265.5M166.75 265.5L149.5 271L161 265.5L142 269.5" stroke="black" stroke-width="2" stroke-linecap="round" stroke-linejoin="round"/>
<path d="M147.5 266.5L129.5 265L126.5 264L120.5 259.5" stroke="black" stroke-width="3" stroke-linecap="round" stroke-linejoin="round"/>
<path d="M125 259.5L128.5 261L134.963 266.529" stroke="black" stroke-width="3" stroke-linecap="round" stroke-linejoin="round"/>
<path d="M174.324 261.427C169.542 265.659 166.256 266.869 160.041 268.241C157.343 268.837 153.231 269.293 150.469 269.124C143.905 268.724 135.539 267.757 134.089 266.657" stroke="black" stroke-width="3" stroke-linecap="round" stroke-linejoin="round"/>
<path d="M157.402 266.212C160.074 266.212 163.689 266.766 166.088 265.255C167.398 264.43 169.035 263.185 170.485 262.702" stroke="black" stroke-linecap="round" stroke-linejoin="round"/>
<path d="M173.995 259.83C169.426 261.613 165.268 264.267 160.575 265.733C158.883 266.262 156.917 266.747 155.169 266.85C153.622 266.941 152.098 268.126 150.382 268.126" stroke="black" stroke-linecap="round" stroke-linejoin="round"/>
<path d="M168.545 261.536C167.341 261.953 166.148 262.558 165.017 263.143C164.215 263.558 163.328 263.747 162.535 264.189C161.945 264.518 161.426 264.95 160.795 265.197C160.216 265.424 159.679 265.631 159.074 265.777C158.882 265.823 157.977 266.057 158.047 266.015C159.49 265.133 161.019 264.359 162.601 263.761C163.266 263.51 163.98 263.343 164.608 263.01C165.25 262.67 163.219 263.438 162.511 263.6C160.329 264.1 158.183 264.548 155.974 264.793C155.722 264.821 155.432 265.03 154.989 265.164C154.788 265.225 154.208 265.302 154.4 265.387C154.753 265.544 155.245 265.537 155.622 265.625C156.364 265.798 157.428 266.01 158.17 265.73C158.36 265.658 159.01 265.436 158.484 265.478C158.253 265.496 155.623 265.527 155.66 265.235C155.669 265.163 157.346 265.216 157.467 265.216C157.707 265.216 157.948 265.216 158.189 265.216C158.298 265.216 157.789 265.307 157.742 265.321C156.359 265.718 155.046 266.31 153.634 266.633C152.903 266.8 152.096 266.842 151.352 266.842C150.594 266.842 149.844 266.928 149.084 266.928C148.103 266.928 149.546 266.885 149.821 266.842C150.875 266.68 151.9 266.388 152.95 266.224C153.349 266.162 153.754 266.024 154.119 265.858C154.299 265.777 153.088 265.946 152.912 265.987C151.573 266.294 150.276 266.643 148.951 267.009C147.902 267.298 146.842 267.487 145.761 267.527C145.543 267.535 144.534 267.869 144.934 267.869C145.827 267.869 146.723 267.955 147.62 267.955C148.13 267.955 148.617 267.784 149.118 267.784" stroke="black" stroke-width="3" stroke-linecap="round" stroke-linejoin="round"/>
<path d="M168.048 263.577C166.785 263.825 165.23 264.738 163.951 264.738C163.003 264.738 165.762 264.176 166.67 263.904C166.789 263.868 168.893 262.936 168.882 262.925C168.468 262.51 166.642 263.465 166.271 263.65C164.566 264.503 162.689 265.677 161.449 267.094C160.629 268.031 163.578 265.763 164.458 264.883" stroke="black" stroke-linecap="round" stroke-linejoin="round"/>
<path d="M183 226C179.5 223.5 174 219.972 167 217.5C160 215.028 144 212.833 138.5 212.5C124.988 211.681 112.743 213.537 109.5 214C100.59 215.273 87.5 217.5 87.5 217.5C83.0825 218.593 80.1237 221.016 77.5258 223.968C74.9278 226.921 73.6289 233.188 73.6289 239.153C73.6289 239.153 73.6904 240.012 73.801 241.215C74.0536 243.521 74.4948 246.745 74.4948 246.745C74.1932 245.129 73.9516 242.853 73.801 241.215C73.6998 240.291 73.6289 239.515 73.6289 239.153C73.6289 239.153 72.9263 237.035 71.8969 236.2C70.8588 232.155 71.6612 232.292 71.0309 228.608C70.4078 224.966 69.732 221.016 68 218.907C69.299 215.954 69.732 215.11 71.0309 214.689C73.4339 213.908 74.0619 214.267 77.9588 213.423C83.9777 212.12 86.1856 211.736 93.1134 210.892C93.1134 210.892 115.689 208.5 127 208.5C135.118 208.5 151 208.5 163.5 212C169.921 213.798 176.66 216.563 183 221C189.34 225.437 188.784 228.868 189 229.5C189.216 230.132 187.938 231.139 187.938 231.139L183 226Z" fill="#1B3475"/>
<path d="M73.6289 239.153C73.6289 233.188 74.9278 226.921 77.5258 223.968C80.1237 221.016 83.0825 218.593 87.5 217.5C87.5 217.5 100.59 215.273 109.5 214C112.743 213.537 124.988 211.681 138.5 212.5C144 212.833 160 215.028 167 217.5C174 219.972 179.5 223.5 183 226L187.938 231.139C187.938 231.139 189.216 230.132 189 229.5C188.784 228.868 189.34 225.437 183 221C176.66 216.563 169.921 213.798 163.5 212C151 208.5 135.118 208.5 127 208.5C115.689 208.5 93.1134 210.892 93.1134 210.892C86.1856 211.736 83.9777 212.12 77.9588 213.423C74.0619 214.267 73.4339 213.908 71.0309 214.689C69.732 215.11 69.299 215.954 68 218.907C69.732 221.016 70.4078 224.966 71.0309 228.608C71.6612 232.292 70.8588 232.155 71.8969 236.2C72.9263 237.035 73.6289 239.153 73.6289 239.153ZM73.6289 239.153C73.6289 240.418 74.4948 246.745 74.4948 246.745M73.6289 239.153C73.6289 239.153 73.9716 243.941 74.4948 246.745M74.4948 246.745C74.4948 246.745 75.8227 253.494 77.0928 258.133C78.3629 262.773 80.1237 267.835 82.7216 272.896C85.3196 277.958 93.5464 289.768 98.3093 294.408C103.072 299.047 111.299 302 114.763 302C118.782 302 128.597 302 135.546 302C142.474 302 160.66 300.313 160.66 300.313C160.66 300.313 174.01 297.838 181.443 294.408C187.072 291.81 194 280.067 194 271.631" stroke="black" stroke-width="2" stroke-linecap="round" stroke-linejoin="round"/>
<ellipse cx="73.1455" cy="219.215" rx="1.5" ry="3" transform="rotate(-43.1214 73.1455 219.215)" fill="white"/>
<ellipse cx="300.432" cy="140.725" rx="28.5" ry="36.7403" transform="rotate(27.1032 300.432 140.725)" fill="white"/>
<path d="M263.5 103.5L314.5 183.5" stroke="black"/>
<path d="M262 175L323 83.5" stroke="black"/>
<path d="M284.5 87.5L287.5 191" stroke="black"/>
<path d="M247 146L368 123" stroke="black"/>
<circle cx="262.5" cy="101.5" r="3.5" fill="black"/>
<circle cx="316.5" cy="185.5" r="3.5" fill="black"/>
<circle cx="368.5" cy="122.5" r="3.5" fill="black"/>
<circle cx="323" cy="83" r="2" fill="black"/>
<circle cx="261.5" cy="175.5" r="3.5" fill="black"/>
<circle cx="288" cy="192" r="2" fill="black"/>
<circle cx="245" cy="146" r="2" fill="black"/>
<circle cx="285" cy="86" r="2" fill="black"/>
<ellipse cx="184.5" cy="29.5" rx="5.5" ry="7.5" fill="white"/>
<path d="M175.5 15L186.5 39.5" stroke="black"/>
<path d="M186.5 7L180.5 41.5" stroke="black"/>
<path d="M171 32.5L194.5 28" stroke="black"/>
<circle cx="187" cy="40" r="2" fill="black"/>
<circle cx="195" cy="28" r="2" fill="black"/>
<circle cx="187" cy="6" r="2" fill="black"/>
<circle cx="175" cy="14" r="2" fill="black"/>
<circle cx="180" cy="42" r="2" fill="black"/>
<circle cx="170" cy="33" r="2" fill="black"/>
<ellipse cx="71" cy="446" rx="7" ry="10" fill="white"/>
<path d="M58 431L85 457.5" stroke="black"/>
<path d="M80 423.5L65.5 457.5" stroke="black"/>
<path d="M59 445L90 442.5" stroke="black"/>
<circle cx="86" cy="459" r="2" fill="black"/>
<circle cx="91" cy="443" r="2" fill="black"/>
<circle cx="80" cy="424" r="2" fill="black"/>
<circle cx="57" cy="430" r="2" fill="black"/>
<circle cx="58" cy="445" r="2" fill="black"/>
<circle cx="65" cy="458" r="2" fill="black"/>
<path d="M104 108L171 141.5" stroke="black"/>
<path d="M105 105L172 138.5" stroke="black"/>
<path d="M182.5 133L185 85" stroke="black"/>
<path d="M185.5 133L188 85" stroke="black"/>
<path d="M105 96.5L178.5 78.5" stroke="black"/>
<path d="M106 99.5L179.5 81.5" stroke="black"/>
<circle cx="92" cy="100" r="11.5" stroke="black"/>
<circle cx="186.5" cy="77.5" r="6" stroke="black"/>
<circle cx="182.5" cy="143.5" r="9" stroke="black"/>
<path d="M353.127 376.478C352.132 387.828 344.851 399.318 332.307 401.004C323.06 402.247 318.659 400.476 316.502 397.518C315.407 396.017 314.844 394.155 314.559 392.08C314.274 390.003 314.273 387.757 314.273 385.5C314.273 376.727 321.851 363.41 336.658 358.474C339.441 357.547 341.832 357.607 343.858 358.337C345.889 359.07 347.596 360.492 348.974 362.359C351.734 366.1 353.123 371.559 353.127 376.478Z" stroke="black"/>
<path d="M283.664 367.145C285.173 363.827 287.051 361.311 288.966 359.835C290.881 358.359 292.761 357.966 294.375 358.7C296.054 359.464 296.871 360.732 297.077 362.292C297.287 363.886 296.857 365.812 295.946 367.816C295.076 369.729 293.181 371.43 291.033 372.447C288.903 373.455 286.646 373.735 284.996 373.018C284.028 372.166 283.574 370.972 283.427 369.824C283.275 368.642 283.46 367.595 283.664 367.145Z" stroke="black"/>
<defs>
<clipPath id="clip0">
<rect width="400.122" height="475.973" fill="white" transform="translate(0.459229 109.734) rotate(-12.5644)"/>
</clipPath>
</defs>
</svg>
